<svg width="37" height="36" viewBox="0 0 37 36" fill="none" xmlns="http://www.w3.org/2000/svg">
<path d="M33 11.3333V24.6667C33 26.8768 32.122 28.9964 30.5592 30.5592C28.9964 32.122 26.8768 33 24.6667 33H11.3333C9.1232 33 7.00358 32.122 5.44078 30.5592C3.87797 28.9964 3 26.8768 3 24.6667V11.3333C3 9.1232 3.87797 7.00358 5.44078 5.44078C7.00358 3.87797 9.1232 3 11.3333 3H24.6667C26.8768 3 28.9964 3.87797 30.5592 5.44078C32.122 7.00358 33 9.1232 33 11.3333Z" stroke="#2E2E2E" stroke-width="2" stroke-linecap="round" stroke-linejoin="round"/>
<path d="M13.165 17.71C17.39 17.71 17.39 24.6667 13.165 24.6667H8V17.71M13.165 17.71H8M13.165 17.71C17.39 17.71 17.39 11.3333 13.165 11.3333H8V17.71M19.6667 20.5C19.6667 19.3949 20.1057 18.3351 20.8871 17.5537C21.6685 16.7723 22.7283 16.3333 23.8333 16.3333C24.9384 16.3333 25.9982 16.7723 26.7796 17.5537C27.561 18.3351 28 19.3949 28 20.5H19.6667ZM19.6667 20.5C19.6667 21.6051 20.1057 22.6649 20.8871 23.4463C21.6685 24.2277 22.7283 24.6667 23.8333 24.6667C25.38 24.6667 26.3167 24.13 26.855 23.6333M26.3333 12.1667H21.3333" stroke="#2E2E2E" stroke-width="2" stroke-linecap="round" stroke-linejoin="round"/>
</svg>
