<svg width="37" height="36" viewBox="0 0 37 36" fill="none" xmlns="http://www.w3.org/2000/svg">
<path d="M33 18C33.0025 19.9757 32.6135 21.9324 31.8554 23.7569C31.0973 25.5814 29.9852 27.2376 28.5833 28.6298C27.1928 30.0178 25.5425 31.1182 23.7265 31.868C21.9106 32.6179 19.9647 33.0026 18 33C9.71551 33 3.00001 26.2845 3.00001 18C2.99477 14.1538 4.47217 10.4536 7.12501 7.66876C8.52477 6.19171 10.2112 5.01582 12.0811 4.21305C13.951 3.41028 15.9651 2.99751 18 3.00001C19.9647 2.99747 21.9106 3.38212 23.7265 4.132C25.5425 4.88187 27.1928 5.98225 28.5833 7.37026C29.9852 8.76243 31.0973 10.4186 31.8554 12.2431C32.6135 14.0676 33.0025 16.0243 33 18Z" stroke="#2E2E2E" stroke-width="2" stroke-linecap="round" stroke-linejoin="round"/>
<path d="M33 18C30.8115 18 24.774 17.175 19.3703 19.5473C13.5 22.125 9.24976 26.1233 7.39726 28.6103" stroke="#2E2E2E" stroke-width="2" stroke-linecap="round" stroke-linejoin="round"/>
<path d="M12.375 4.09052C14.7225 6.25727 19.845 11.7735 21.75 17.25C23.655 22.7265 24.36 29.46 24.795 31.3763" stroke="#2E2E2E" stroke-width="2" stroke-linecap="round" stroke-linejoin="round"/>
<path d="M3.11551 16.125C5.94901 16.296 13.4498 16.4498 18.2498 14.4C23.0498 12.3503 27.18 8.58001 28.5968 7.38376M4.12501 23.7098C5.44675 26.9092 7.83054 29.5555 10.875 31.203" stroke="#2E2E2E" stroke-width="2" stroke-linecap="round" stroke-linejoin="round"/>
<path d="M3.00001 18C2.99477 14.1538 4.47217 10.4536 7.12501 7.66876C8.52477 6.19171 10.2112 5.01582 12.0811 4.21305C13.951 3.41028 15.9651 2.99751 18 3.00001M24 4.24801C25.7082 4.99542 27.2624 6.05419 28.5833 7.37026C29.9852 8.76243 31.0973 10.4186 31.8554 12.2431C32.6135 14.0676 33.0025 16.0243 33 18C33 19.8465 32.6663 21.6158 32.055 23.25M18 33C19.9647 33.0026 21.9106 32.6179 23.7265 31.868C25.5425 31.1182 27.1928 30.0178 28.5833 28.6298" stroke="#2E2E2E" stroke-width="2" stroke-linecap="round" stroke-linejoin="round"/>
</svg>
