<svg width="37" height="36" viewBox="0 0 37 36" fill="none" xmlns="http://www.w3.org/2000/svg">
<path d="M19 33C27.2845 33 34 26.2845 34 18C34 9.7155 27.2845 3 19 3C10.7155 3 4 9.7155 4 18C4 26.2845 10.7155 33 19 33Z" stroke="#2E2E2E" stroke-width="2" stroke-linecap="round" stroke-linejoin="round"/>
<path d="M22.4995 28.5V25.7055C22.537 25.2405 22.4725 24.7755 22.3105 24.336C22.1474 23.8962 21.8916 23.4967 21.5605 23.1645C24.7 22.824 28 21.6645 28 16.3485C27.9971 14.9821 27.4586 13.6713 26.5 12.6975C26.9562 11.5097 26.9239 10.1896 26.41 9.02551C26.41 9.02551 25.2295 8.68501 22.4995 10.467C20.2057 9.8623 17.7943 9.8623 15.5005 10.467C12.7705 8.68501 11.59 9.02701 11.59 9.02701C11.077 10.1902 11.0446 11.5091 11.5 12.696C10.5348 13.677 9.99571 14.9993 10 16.3755C10 21.654 13.3 22.812 16.4395 23.1915C16.112 23.5208 15.8583 23.9161 15.6955 24.351C15.5338 24.7827 15.4673 25.2442 15.5005 25.704V28.5" stroke="#2E2E2E" stroke-width="2" stroke-linecap="round" stroke-linejoin="round"/>
<path d="M15.5005 26.553C12.5005 27.4995 10 26.553 8.5 23.631" stroke="#2E2E2E" stroke-width="2" stroke-linecap="round" stroke-linejoin="round"/>
</svg>
