<svg width="37" height="36" viewBox="0 0 37 36" fill="none" xmlns="http://www.w3.org/2000/svg">
<path d="M29.25 3H6.75C4.67893 3 3 4.67893 3 6.75V29.25C3 31.3211 4.67893 33 6.75 33H29.25C31.3211 33 33 31.3211 33 29.25V6.75C33 4.67893 31.3211 3 29.25 3Z" stroke="#2E2E2E" stroke-width="2" stroke-linecap="round" stroke-linejoin="round"/>
<path d="M10.5 16.125V25.5M10.5 10.5V10.5188M18 25.5V16.125M25.5 25.5V19.875C25.5 18.8804 25.1049 17.9266 24.4016 17.2234C23.6984 16.5201 22.7446 16.125 21.75 16.125C20.7554 16.125 19.8016 16.5201 19.0984 17.2234C18.3951 17.9266 18 18.8804 18 19.875" stroke="#2E2E2E" stroke-width="2" stroke-linecap="round" stroke-linejoin="round"/>
</svg>
